<svg width="1200" height="900" viewBox="0 0 1200 900" fill="none" xmlns="http://www.w3.org/2000/svg">
  <rect width="1200" height="900" rx="40" fill="#12100F"/>
  <rect x="50" y="50" width="1100" height="800" rx="30" fill="#1A1715"/>
  <rect x="90" y="90" width="1020" height="66" rx="18" fill="#24201D"/>
  <circle cx="124" cy="123" r="8" fill="#FF8A5B"/>
  <circle cx="152" cy="123" r="8" fill="#FFD166"/>
  <circle cx="180" cy="123" r="8" fill="#6EE7A8"/>
  <rect x="214" y="108" width="184" height="30" rx="15" fill="#342F2C"/>
  <rect x="930" y="106" width="128" height="34" rx="17" fill="#FFD166"/>
  <rect x="90" y="190" width="220" height="620" rx="24" fill="#211D1B"/>
  <rect x="120" y="228" width="150" height="20" rx="10" fill="#F8F2EA"/>
  <rect x="120" y="278" width="160" height="16" rx="8" fill="#8D7A69"/>
  <rect x="120" y="314" width="140" height="16" rx="8" fill="#8D7A69"/>
  <rect x="120" y="350" width="130" height="16" rx="8" fill="#8D7A69"/>
  <rect x="120" y="410" width="160" height="140" rx="18" fill="#2D2724"/>
  <rect x="340" y="190" width="450" height="300" rx="24" fill="url(#paint0_linear)"/>
  <rect x="378" y="228" width="190" height="20" rx="10" fill="#FFF7F0"/>
  <rect x="378" y="268" width="140" height="16" rx="8" fill="#E1C8B0"/>
  <rect x="378" y="326" width="150" height="110" rx="20" fill="#181614"/>
  <path d="M552 402C578 360 607 314 660 310C706 306 742 338 760 362" stroke="#FFD166" stroke-width="16" stroke-linecap="round"/>
  <circle cx="757" cy="360" r="16" fill="#FFD166"/>
  <rect x="378" y="456" width="104" height="14" rx="7" fill="#E1C8B0"/>
  <rect x="820" y="190" width="290" height="620" rx="24" fill="#211D1B"/>
  <rect x="850" y="228" width="170" height="20" rx="10" fill="#F8F2EA"/>
  <rect x="850" y="278" width="230" height="170" rx="18" fill="#2D2724"/>
  <rect x="878" y="304" width="100" height="14" rx="7" fill="#FFF7F0"/>
  <rect x="878" y="334" width="174" height="80" rx="16" fill="#171412"/>
  <rect x="850" y="472" width="230" height="140" rx="18" fill="#2D2724"/>
  <rect x="878" y="500" width="122" height="14" rx="7" fill="#FFF7F0"/>
  <rect x="878" y="530" width="174" height="16" rx="8" fill="#8D7A69"/>
  <rect x="878" y="560" width="134" height="16" rx="8" fill="#8D7A69"/>
  <rect x="850" y="636" width="170" height="44" rx="22" fill="#FFD166"/>
  <rect x="340" y="520" width="450" height="290" rx="24" fill="#211D1B"/>
  <rect x="374" y="554" width="190" height="20" rx="10" fill="#F8F2EA"/>
  <rect x="374" y="604" width="382" height="18" rx="9" fill="#8D7A69"/>
  <rect x="374" y="638" width="300" height="18" rx="9" fill="#8D7A69"/>
  <rect x="374" y="690" width="150" height="74" rx="18" fill="#2D2724"/>
  <rect x="548" y="690" width="208" height="74" rx="18" fill="#2D2724"/>
  <rect x="398" y="714" width="92" height="14" rx="7" fill="#FFF7F0"/>
  <rect x="572" y="714" width="122" height="14" rx="7" fill="#FFF7F0"/>
  <defs>
    <linearGradient id="paint0_linear" x1="340" y1="190" x2="790" y2="490" gradientUnits="userSpaceOnUse">
      <stop stop-color="#5B4113"/>
      <stop offset="1" stop-color="#1D1916"/>
    </linearGradient>
  </defs>
</svg>
