<svg width="1200" height="900" viewBox="0 0 1200 900" fill="none" xmlns="http://www.w3.org/2000/svg">
  <rect width="1200" height="900" rx="40" fill="#120E0C"/>
  <rect x="50" y="50" width="1100" height="800" rx="28" fill="#211814"/>
  <rect x="90" y="90" width="1020" height="64" rx="18" fill="#2D211C"/>
  <circle cx="125" cy="122" r="8" fill="#FF8A5B"/>
  <circle cx="153" cy="122" r="8" fill="#FFD166"/>
  <circle cx="181" cy="122" r="8" fill="#6EE7A8"/>
  <rect x="222" y="106" width="170" height="30" rx="15" fill="#3A2A22"/>
  <rect x="900" y="104" width="160" height="34" rx="17" fill="#FFB067"/>
  <rect x="90" y="190" width="250" height="600" rx="24" fill="#2A1F1A"/>
  <rect x="118" y="222" width="126" height="126" rx="20" fill="#3B2B24"/>
  <rect x="136" y="244" width="92" height="14" rx="7" fill="#FFEEDF"/>
  <rect x="136" y="272" width="74" height="14" rx="7" fill="#A88473"/>
  <rect x="136" y="322" width="150" height="18" rx="9" fill="#FFF1E5"/>
  <rect x="118" y="380" width="194" height="56" rx="18" fill="#342621"/>
  <rect x="136" y="400" width="110" height="16" rx="8" fill="#EED6C2"/>
  <rect x="118" y="454" width="194" height="56" rx="18" fill="#342621"/>
  <rect x="136" y="474" width="128" height="16" rx="8" fill="#EED6C2"/>
  <rect x="118" y="528" width="194" height="56" rx="18" fill="#342621"/>
  <rect x="136" y="548" width="94" height="16" rx="8" fill="#EED6C2"/>
  <rect x="118" y="664" width="160" height="44" rx="22" fill="#FFB067"/>
  <rect x="368" y="190" width="472" height="600" rx="24" fill="#191210"/>
  <rect x="396" y="222" width="416" height="50" rx="18" fill="#241A16"/>
  <rect x="420" y="238" width="150" height="18" rx="9" fill="#FFF1E5"/>
  <rect x="664" y="232" width="120" height="30" rx="15" fill="#FFB067"/>
  <rect x="396" y="304" width="416" height="140" rx="22" fill="#241A16"/>
  <rect x="420" y="330" width="140" height="20" rx="10" fill="#FFF1E5"/>
  <rect x="420" y="366" width="214" height="16" rx="8" fill="#8D6E60"/>
  <rect x="420" y="396" width="180" height="16" rx="8" fill="#8D6E60"/>
  <rect x="660" y="328" width="126" height="88" rx="16" fill="#FFB067"/>
  <rect x="396" y="472" width="416" height="290" rx="22" fill="#241A16"/>
  <rect x="420" y="500" width="372" height="38" rx="12" fill="#2D211C"/>
  <rect x="438" y="512" width="110" height="14" rx="7" fill="#FDEBDD"/>
  <rect x="438" y="560" width="336" height="54" rx="16" fill="#2D211C"/>
  <rect x="456" y="580" width="118" height="14" rx="7" fill="#FFEEDF"/>
  <rect x="602" y="580" width="92" height="14" rx="7" fill="#C9A892"/>
  <rect x="438" y="630" width="336" height="54" rx="16" fill="#2D211C"/>
  <rect x="456" y="650" width="118" height="14" rx="7" fill="#FFEEDF"/>
  <rect x="602" y="650" width="92" height="14" rx="7" fill="#C9A892"/>
  <rect x="438" y="700" width="336" height="36" rx="18" fill="#FFB067"/>
  <rect x="868" y="190" width="242" height="600" rx="24" fill="#2A1F1A"/>
  <rect x="894" y="222" width="190" height="20" rx="10" fill="#FFF1E5"/>
  <rect x="894" y="272" width="190" height="230" rx="20" fill="#342621"/>
  <rect x="920" y="300" width="138" height="138" rx="18" fill="#FFB067"/>
  <rect x="894" y="530" width="190" height="204" rx="20" fill="#342621"/>
  <rect x="920" y="560" width="138" height="16" rx="8" fill="#FFEEDF"/>
  <rect x="920" y="594" width="118" height="14" rx="7" fill="#A88473"/>
  <rect x="920" y="624" width="136" height="14" rx="7" fill="#A88473"/>
  <rect x="920" y="666" width="94" height="36" rx="18" fill="#FFB067"/>
</svg>
